<mxfile host="app.diagrams.net" modified="2020-12-03T16:46:18.831Z" agent="5.0 (Windows NT 10.0; Win64; x64) AppleWebKit/537.36 (KHTML, like Gecko) Chrome/86.0.4240.198 Safari/537.36" etag="BNGW9TburJiRxNUmALUf" version="13.10.6" type="github">
  <diagram id="ss3rewC2kL-sStCDmPgI" name="Page-1">
    <mxGraphModel dx="1422" dy="762" grid="1" gridSize="10" guides="1" tooltips="1" connect="1" arrows="1" fold="1" page="1" pageScale="1" pageWidth="827" pageHeight="1169" math="0" shadow="0">
      <root>
        <mxCell id="0" />
        <mxCell id="1" parent="0" />
        <mxCell id="5QR0yUWh2kFCQwv218S0-1" value="" style="edgeStyle=orthogonalEdgeStyle;rounded=0;orthogonalLoop=1;jettySize=auto;html=1;" edge="1" parent="1" source="5QR0yUWh2kFCQwv218S0-2" target="5QR0yUWh2kFCQwv218S0-5">
          <mxGeometry relative="1" as="geometry" />
        </mxCell>
        <mxCell id="5QR0yUWh2kFCQwv218S0-2" value="&lt;font style=&quot;font-size: 18px&quot;&gt;Netsuite&lt;/font&gt;" style="rounded=0;whiteSpace=wrap;html=1;" vertex="1" parent="1">
          <mxGeometry x="320" y="90" width="200" height="70" as="geometry" />
        </mxCell>
        <mxCell id="5QR0yUWh2kFCQwv218S0-3" value="&lt;font style=&quot;font-size: 18px&quot;&gt;Turboviz&lt;/font&gt;" style="rounded=0;whiteSpace=wrap;html=1;" vertex="1" parent="1">
          <mxGeometry x="320" y="480" width="200" height="80" as="geometry" />
        </mxCell>
        <mxCell id="5QR0yUWh2kFCQwv218S0-4" style="edgeStyle=orthogonalEdgeStyle;rounded=0;orthogonalLoop=1;jettySize=auto;html=1;" edge="1" parent="1" source="5QR0yUWh2kFCQwv218S0-5" target="5QR0yUWh2kFCQwv218S0-3">
          <mxGeometry relative="1" as="geometry" />
        </mxCell>
        <mxCell id="5QR0yUWh2kFCQwv218S0-5" value="Send Sales Order that are approved" style="shape=process;whiteSpace=wrap;html=1;backgroundOutline=1;" vertex="1" parent="1">
          <mxGeometry x="360" y="270" width="120" height="60" as="geometry" />
        </mxCell>
        <mxCell id="5QR0yUWh2kFCQwv218S0-6" value="Suitescript&lt;br&gt;Scheduled/Batchedly" style="text;html=1;align=center;verticalAlign=middle;resizable=0;points=[];autosize=1;" vertex="1" parent="1">
          <mxGeometry x="420" y="390" width="130" height="30" as="geometry" />
        </mxCell>
        <mxCell id="5QR0yUWh2kFCQwv218S0-7" value="&lt;font style=&quot;font-size: 24px&quot;&gt;Sales Order Sync&lt;/font&gt;" style="text;html=1;align=center;verticalAlign=middle;resizable=0;points=[];autosize=1;" vertex="1" parent="1">
          <mxGeometry x="320" y="40" width="200" height="20" as="geometry" />
        </mxCell>
      </root>
    </mxGraphModel>
  </diagram>
</mxfile>
